<svg width="660" height="281" viewBox="0 0 660 281" fill="none" xmlns="http://www.w3.org/2000/svg">
<path opacity="0.6" d="M330.16 247.974C330.291 235.225 329.969 222.478 329.832 209.73M640.926 267.605C647.115 266.986 653.305 266.355 659.489 265.713M567.497 274.843C590.425 272.486 613.37 270.272 636.38 268.059M528.682 278.86C540.11 277.626 551.545 276.447 562.984 275.296M616.593 255.394C629.213 253.12 642.324 252.013 654.763 249.518M600.133 257.934C604.143 257.314 608.153 256.694 612.163 256.074M578.772 261.221C584.263 260.38 589.759 259.533 595.249 258.686M541.585 266.731C552.479 265.109 563.378 263.505 574.271 261.906M455.886 279.85C476.968 276.663 497.996 273.116 519.083 269.974C525.076 269.083 531.069 268.22 537.073 267.406M589.125 247.565C609.546 243.714 629.759 238.181 650.043 235.171M559.608 253.153C567.868 251.498 576.166 250.021 584.454 248.516M545.765 256.13C548.797 255.427 551.84 254.758 554.888 254.122M501.432 264.878C514.735 262.322 528.021 259.693 541.296 257.026M487.332 267.583C490.538 266.969 493.745 266.366 496.958 265.768M632.196 222.489C636.331 221.41 640.467 220.325 644.597 219.224M617.221 226.351C620.75 225.449 624.285 224.541 627.814 223.623M567.513 238.856C582.618 235.082 597.724 231.325 612.807 227.48M549.354 243.404C553.801 242.286 558.248 241.169 562.695 240.057M518.417 251.304C527.245 249.008 536.09 246.756 544.934 244.521M461.666 265.558C478.979 261.973 496.461 256.44 513.97 252.434M447.309 269.166C450.5 268.352 453.696 267.55 456.897 266.77M435.537 272.22C437.99 271.579 440.437 270.937 442.89 270.3M405.534 279.767C414.007 277.814 422.431 275.645 430.849 273.448M618.538 210.798C625.225 208.64 631.89 206.416 638.538 204.136M601.652 216.07C606.213 214.692 610.769 213.276 615.309 211.831M581.76 221.785C586.961 220.369 592.146 218.892 597.314 217.365M535.789 235.652C549.507 231.37 563.284 227.281 577.062 223.186M525.273 239.06C527.207 238.424 529.14 237.788 531.074 237.163M483.256 252.074C495.821 248.228 508.375 244.355 520.913 240.41M469.478 256.28C472.5 255.361 475.521 254.437 478.542 253.519M422.491 270.593C436.695 266.238 450.91 261.928 465.125 257.601M599.264 201.651C610.015 197.695 620.701 193.567 631.512 189.782M577.975 209.059C583.602 207.256 589.185 205.314 594.741 203.3M563.421 214.3C566.732 213.105 570.042 211.915 573.358 210.742M550.594 219.019C553.331 218.006 556.068 216.994 558.805 215.976M504.868 235.774C518.7 230.767 532.517 225.698 546.316 220.597M491.096 240.931C494.264 239.763 497.427 238.568 500.574 237.334M475.892 246.347C479.552 245.075 483.213 243.786 486.862 242.469M437.399 260.108C448.615 255.748 460 251.853 471.369 247.919M407.271 271.03C415.875 267.887 424.485 264.767 433.105 261.657M392.581 276.425C396.044 275.146 399.502 273.874 402.971 272.601M611.529 178.661C615.331 176.99 619.128 175.302 622.914 173.593M601.143 183.188C603.225 182.291 605.301 181.39 607.377 180.482M584.487 190.319C588.54 188.593 592.594 186.866 596.636 185.129M532.123 212.966C548.359 206.089 564.202 198.896 579.941 192.251M516.887 219.257C520.514 217.647 524.114 215.976 527.709 214.294M506.949 223.445C508.796 222.715 510.626 221.963 512.456 221.188M459.973 243.36C474.182 237.218 488.413 231.132 502.732 225.266M416.94 261.867C429.866 256.539 442.802 251.227 455.477 245.307M376.568 279.501C388.467 273.741 400.638 268.601 412.843 263.555M587.245 173.018C596.576 168.608 605.934 164.237 615.162 159.606M566.011 183.342C571.583 180.515 577.21 177.793 582.853 175.104M555.27 188.809C557.385 187.702 559.51 186.612 561.64 185.533M534.844 198.879C540.165 196.229 545.497 193.595 550.834 190.978M474.177 228.696C493.183 219.921 511.211 209.961 530.452 200.992M450.418 239.768C456.859 236.614 463.365 233.593 469.954 230.766M437.842 246.125C440.475 244.759 443.114 243.409 445.763 242.075M399 265.497C410.292 259.272 422.087 254.06 433.603 248.289M375.503 277.056C381.933 273.969 388.363 270.898 394.733 267.683M599.253 150.299C601.504 149.088 603.727 147.809 605.842 146.36M585.235 158.278C588.218 155.815 591.622 154.034 595.129 152.462M566.016 168.386C570.84 165.62 575.68 162.87 580.542 160.164M512.014 198.353C525.114 191.796 537.881 184.576 550.588 177.272C554.232 175.175 557.871 173.072 561.514 170.975M500.148 204.877C502.678 203.488 505.201 202.099 507.731 200.71M457.061 228.88C470.183 221.98 483.071 214.632 495.952 207.279M374.356 274.753C400.311 260.312 426.533 245.926 452.887 231.197M587.529 139.122C590.6 137.235 593.675 135.354 596.751 133.478M576.587 145.889C578.849 144.483 581.111 143.083 583.378 141.689M543.689 166.423C553.358 160.375 563.022 154.316 572.708 148.296M533.484 172.857C535.532 171.568 537.576 170.273 539.619 168.967M523.601 179.093C525.589 177.859 527.567 176.608 529.528 175.341M474.286 209.614C476.903 207.671 480.049 206.687 482.803 204.982C485.731 203.173 488.588 201.225 491.494 199.383C497.558 195.532 503.349 191.349 509.501 187.636C512.915 185.578 516.346 183.531 519.755 181.456M465.534 215.036C467.157 214.034 468.779 213.033 470.402 212.026M431.374 236.703C441.546 230.385 451.669 223.988 461.688 217.426M409.669 250.054C415.618 246.419 421.562 242.778 427.495 239.11M392.531 260.523C396.858 257.872 401.19 255.233 405.522 252.588M373.083 272.496C378.256 269.282 383.441 266.089 388.636 262.908M561.4 140.66C570.288 134.64 579.127 128.542 587.792 122.19M553.325 146.105C554.675 145.197 556.019 144.295 557.363 143.388M523.721 166.168C532.085 160.352 540.542 154.676 548.999 149.004M509.058 176.382C512.713 173.87 516.352 171.33 519.985 168.785M488.626 190.458C494.111 186.933 499.383 182.977 504.781 179.308M478.52 197.358C480.607 195.936 482.693 194.508 484.78 193.086M438.224 225.277C450.434 216.9 462.666 208.562 474.729 199.969M418.071 239.22C423.425 235.469 428.801 231.751 434.187 228.049M399.235 252.185C404.255 248.727 409.281 245.269 414.302 241.811M371.941 270.671C379.813 265.509 387.587 260.202 395.345 254.863M569.835 116.658C572.331 114.644 574.806 112.608 577.259 110.544M535.084 143.022C545.524 135.376 555.937 127.69 566.082 119.651M525.174 150.343C527.097 148.927 529.015 147.51 530.938 146.088M494.111 173.632C503.065 166.721 512.139 159.97 521.235 153.253M483.977 181.538C485.993 179.945 488.015 178.357 490.041 176.78M464.507 196.56C469.577 192.604 474.668 188.67 479.771 184.753M454.455 204.257C456.487 202.703 458.514 201.148 460.546 199.587M422.78 228.448C432.068 221.304 441.333 214.139 450.713 207.118M406.358 240.997C410.554 237.832 414.728 234.64 418.896 231.436M370.379 268.424C381.168 260.213 391.947 251.996 402.725 243.769M553.14 110.571C557.647 106.737 562.159 102.913 566.721 99.1341M544.229 118.168C545.956 116.696 547.677 115.224 549.403 113.752M528.332 131.575C532.413 128.199 536.455 124.786 540.493 121.355M507.032 149.613C512.937 144.721 518.783 139.758 524.612 134.767M499.241 155.987C500.596 154.891 501.94 153.796 503.289 152.695M471.112 179.691C479.186 172.631 487.173 165.432 495.723 158.953M453.685 194.469C458.317 190.635 462.928 186.773 467.484 182.844M444.698 201.889C446.435 200.455 448.178 199.017 449.921 197.584M435.733 209.325C437.367 207.958 439.006 206.597 440.644 205.236M410.401 230.683C417.568 224.613 424.747 218.549 431.942 212.507M392.57 245.8C397.251 241.832 401.928 237.86 406.61 233.892M368.554 266.1C375.301 260.423 382.037 254.724 388.767 249.025M548.283 94.7746C550.621 92.6554 552.965 90.5473 555.33 88.4614M535.718 106.278C538.701 103.556 541.667 100.817 544.65 98.0891M524.098 117.238C526.813 114.549 529.55 111.888 532.38 109.326M514.095 127.098C516.319 124.968 518.509 122.799 520.695 120.624M486.605 152.805C494.592 145.396 502.563 137.96 510.495 130.49M479.601 159.29C480.628 158.338 481.656 157.387 482.683 156.435M456.886 180.288C463.24 174.412 469.604 168.541 475.958 162.665M416.886 217.592C428.719 206.089 441.284 195.023 453.335 183.57M398.715 234.445C403.556 229.936 408.412 225.443 413.274 220.961M366.904 264.208C376.301 255.405 385.686 246.591 395.099 237.81M532.992 92.926C537.242 88.6489 541.465 84.3497 545.644 80.0007M521.268 104.646C523.94 101.984 526.606 99.3285 529.266 96.6615M493.734 132.532C501.639 124.254 509.725 116.154 517.826 108.076M461.945 164.829C471.369 155.24 480.798 145.657 490.238 136.079M439.175 187.564C445.556 181.04 451.98 174.555 458.569 168.248M430.27 196.688C432.193 194.718 434.111 192.748 436.034 190.784M422.289 204.81C423.747 203.339 425.206 201.861 426.659 200.378M403.206 224.281C408.32 219.041 413.438 213.807 418.585 208.589M390.089 237.721C393.318 234.418 396.541 231.115 399.764 227.806M365.418 262.653C372.542 255.577 379.595 248.433 386.62 241.263M520.962 84.4215C525.256 79.6576 529.567 74.9102 533.899 70.1849M479.585 131.06C489.451 119.872 499.307 108.668 509.228 97.5295C512.025 94.3867 514.827 91.2494 517.641 88.1177M467.719 144.494C470.582 141.257 473.445 138.02 476.307 134.778M446.965 167.75C452.822 161.254 458.64 154.73 464.442 148.19M438.793 176.852C440.328 175.148 441.863 173.444 443.392 171.739M422.425 195.183C426.686 190.408 430.948 185.633 435.209 180.858M411.166 207.798C413.81 204.838 416.454 201.872 419.098 198.912M392.57 228.708C397.661 222.976 402.753 217.244 407.85 211.517M377.431 245.689C381.294 241.357 385.162 237.019 389.024 232.686M363.741 261.043C367.533 256.993 370.81 253.12 374.356 249.142M517.346 66.2179C518.706 64.558 520.061 62.8925 521.421 61.2326M498.099 90.0988C503.404 83.3485 508.813 76.6812 514.237 70.0304M489.337 101.458C491.232 98.9462 493.15 96.4508 495.078 93.9609M479.956 113.067C482.049 110.494 484.136 107.916 486.217 105.337M464.294 132.023C468.435 127.098 472.538 122.141 476.613 117.161M448.85 151.223C452.915 146.1 456.979 140.987 461.131 135.941M442.043 159.782C443.299 158.211 444.55 156.639 445.802 155.062M424.255 181.853C429.085 175.905 433.892 169.941 438.689 163.965M400.961 211.129C407.784 202.713 414.405 194.137 421.174 185.682M393.209 220.475C394.722 218.699 396.219 216.906 397.705 215.108M383.397 232.193C385.533 229.427 387.647 226.649 389.751 223.86M361.638 259.228C368.013 251.587 374.29 243.857 380.42 236.017M505.442 57.4819C506.485 56.0323 507.534 54.5826 508.583 53.1329M497.837 68.0557C499.4 65.8757 500.962 63.7012 502.53 61.5212M485.119 85.7998C488.397 81.235 491.669 76.6702 494.942 72.0999M462.803 116.415C469.364 107.6 475.826 98.7088 482.251 89.7895M448.981 135.221C452.685 130.186 456.389 125.156 460.087 120.115M428.249 163.406C434.225 155.273 440.213 147.139 446.195 139.011M418.197 176.686C420.677 173.366 423.19 170.068 425.758 166.82M406.686 192.19C409.587 188.123 412.657 184.184 415.618 180.161M399.087 203.433C400.89 200.805 402.665 198.16 404.397 195.487M382.539 226.76C387.292 220.226 392.012 213.664 396.607 207.007M359.595 257.646C360.43 256.993 373.542 238.181 379.972 230.285M482.087 68.8792C487.108 61.3542 492.068 53.7905 496.712 46.0221M470.964 85.5789C473.821 81.23 476.717 76.9086 479.612 72.5873M464.032 96.1304C465.572 93.7844 467.113 91.4439 468.653 89.0979M447.238 120.93C452.155 113.969 456.919 106.909 461.623 99.7987M432.068 143.787C436.329 137.357 440.601 130.928 444.873 124.504M417.536 165.759C421.535 159.705 425.534 153.658 429.538 147.61M385.047 215.058C394.848 200.003 404.681 184.51 414.996 169.599M371.127 236.41C374.968 230.573 378.781 224.719 382.583 218.854M357.775 256.367C361.43 251.017 365.03 245.633 368.609 240.233M481.59 43.2674C482.409 41.7403 483.213 40.2076 483.994 38.6584M469.828 63.4568C473.128 58.0842 476.378 52.6784 479.454 47.173M458.001 82.707C461.12 77.5059 464.327 72.3602 467.517 67.2034M446.206 102.482C449.254 97.043 452.456 91.6981 455.722 86.3919M438.284 115.966C440.207 112.629 442.152 109.31 444.119 106.001M433.062 124.785C434.023 123.148 434.99 121.515 435.957 119.883M419.535 147.914C423.387 141.296 427.249 134.69 431.122 128.094M408.582 166.416C411.45 161.569 414.318 156.722 417.186 151.875M394.684 189.865C398.535 183.369 402.387 176.874 406.233 170.378M388.396 200.467C389.773 198.149 391.149 195.83 392.526 193.512M375.11 222.367C378.852 216.38 382.397 210.272 386.069 204.241M355.727 255.067C361.523 245.373 366.986 235.967 372.968 225.974M440.781 88.1014C448.484 73.5329 456.389 59.075 464.026 44.4677C466.184 40.3345 468.326 36.1958 470.434 32.0349M433.056 102.925C434.919 99.2897 436.804 95.6655 438.7 92.0524M414.05 139.288C419.776 128.432 425.468 117.554 431.095 106.643M407.216 152.059C408.784 149.148 410.352 146.232 411.925 143.322M394.531 175.497C397.995 169.006 401.491 162.533 405.042 156.092M377.421 207.959C382.458 198.331 387.484 188.698 392.603 179.115M363.452 234.567C367.319 226.964 371.209 219.373 375.345 211.92M353.503 253.806C356.268 248.644 358.939 243.432 361.6 238.214M452.734 33.7726C454.073 31.1665 455.449 28.5826 456.87 26.0263M446.506 46.4544C447.894 43.5164 449.309 40.5949 450.757 37.6901M440.989 58.4609C442.18 55.805 443.382 53.1602 444.605 50.5209M436.034 69.6655C437.11 67.1977 438.197 64.7355 439.284 62.2733M427.55 89.0312C429.784 83.9961 431.986 78.9444 434.193 73.8928M416.388 113.139C419.666 106.389 422.808 99.5775 425.889 92.7387M411.586 123.585C412.603 121.383 413.619 119.175 414.635 116.967M404.168 139.598C406.053 135.537 407.937 131.481 409.817 127.42M395.607 158.05C397.809 153.292 400.016 148.533 402.228 143.775M384.911 181.095C387.893 174.699 390.865 168.297 393.832 161.89M378.699 194.281C380.201 191.127 381.687 187.973 383.173 184.808M367.948 217.11C370.952 210.775 373.941 204.434 376.918 198.087M351.367 252.732C356.606 242.054 361.523 231.541 366.205 220.851M437.236 31.9519C438.864 27.8962 440.486 23.8349 442.092 19.7681M420.792 73.3675C425.577 60.7853 430.647 48.3193 435.673 35.8367M411.177 96.5833C414.099 90.2424 416.399 83.6304 419.202 77.2342M392.231 144.007C398.005 129.439 403.774 114.864 409.669 100.34M384.402 163.705C386.5 158.455 388.587 153.204 390.669 147.947M368.723 202.188C373.525 190.701 378.207 179.159 382.84 167.6M358.032 228.691C361.07 221.155 364.113 213.619 367.156 206.083M348.789 251.598C351.34 245.273 353.891 238.949 356.443 232.625M424.463 25.5609C425.583 22.2854 426.697 19.0043 427.801 15.7231M418.06 44.1076C419.748 39.2607 421.425 34.4137 423.092 29.5612M413.493 57.1886C414.553 54.162 415.613 51.1355 416.667 48.1089M405.348 80.3938C407.593 73.9866 409.844 67.5848 412.089 61.1775M392.985 115.253C396.476 104.906 400.109 94.6088 403.96 84.3948M387.566 131.697C388.877 127.641 390.199 123.591 391.548 119.546M374.115 170.882C378.213 159.306 382.157 147.682 386.09 136.057M369.893 182.628C370.843 180.022 371.783 177.416 372.717 174.804M360.299 209.852C363.047 202.111 365.773 194.37 368.494 186.618M346.243 250.641C350.351 238.468 354.509 226.312 358.77 214.195M407.708 31.1665C409.581 24.7426 411.472 18.3243 413.389 11.917M391.182 88.0797C395.94 70.5344 401.95 52.8286 406.522 35.2445M387.467 101.06C388.341 98.0887 389.166 95.1008 390.002 92.113M375.23 142.381C378.868 129.91 382.539 117.444 386.271 105M362.823 185.096C366.478 172.315 370.155 159.533 373.946 146.796M358.972 198.585C359.873 195.437 360.769 192.289 361.665 189.14M351.089 225.98C353.361 218.19 355.601 210.388 357.83 202.581M343.981 249.927C345.986 243.309 347.958 236.675 349.903 230.035M387.751 55.7382C390.74 43.3995 393.203 30.9446 395.918 18.545C396.678 15.0813 397.344 11.612 399.098 8.48585M384.14 69.4828C385.042 66.3234 385.894 63.153 386.702 59.9715M375.268 108.441C378.027 96.9435 380.518 85.3794 383.146 73.8484M371.411 124.321C372.4 120.354 373.367 116.376 374.323 112.397M364.408 152.783C366.407 144.721 368.396 136.654 370.368 128.582M360.349 170.865C361.321 166.134 362.37 161.42 363.474 156.722M351.083 209.685C353.826 198.055 356.595 186.43 359.398 174.816M341.627 249.307C344.041 237.627 347.319 226.007 349.941 214.46M382.523 23.5863C383.61 17.7766 384.697 11.9668 385.774 6.15159M380.119 36.4059C380.655 33.5176 381.19 30.6349 381.742 27.7522M370.455 87.8365C373.722 72.1281 376.476 56.3201 379.36 40.5398M368.128 99.5105C368.636 96.9985 369.15 94.4921 369.674 91.98M365.025 115.352C365.79 111.324 366.571 107.301 367.369 103.279M361.075 136.505C362.124 130.833 363.167 125.168 364.238 119.502M356.202 162.549C357.606 155.257 358.961 147.953 360.31 140.649M351.662 185.146C352.962 179.01 354.203 172.857 355.399 166.699M349.488 196.887C349.958 194.375 350.417 191.863 350.859 189.346M345.003 219.833C346.248 213.569 347.505 207.306 348.707 201.031M339.518 248.859C340.944 240.515 342.544 232.205 344.189 223.899M364.916 50.5982C367.15 35.0171 369.357 19.436 371.362 3.82165M362.883 64.758C363.381 61.3109 363.872 57.8693 364.369 54.4222M357.011 106.875C358.688 94.2103 360.474 81.5562 362.288 68.9076M351.537 145.85C353.186 134.131 354.831 122.407 356.475 110.688M347.964 170.711C348.964 163.827 349.952 156.939 350.941 150.056M345.271 190.087C345.975 185.018 346.675 179.956 347.379 174.887M340.119 226.677C341.643 215.882 343.162 205.082 344.681 194.287M337.065 248.455C338.032 242.607 338.578 236.52 339.578 230.544M340.927 178.944C346.773 120.327 351.143 61.1227 356.951 2.22873M338.021 209.253C338.748 200.473 339.529 191.697 340.562 182.949M334.667 247.974C335.885 236.471 336.754 224.935 337.688 213.409M340.545 44.4069C341.113 29.9379 341.594 15.4634 342.293 1M339.78 62.0738C339.999 57.5975 340.19 53.1157 340.376 48.6395M338.36 95.3279C338.77 85.5565 339.185 75.7795 339.616 66.0081M337.802 108.829C337.928 105.741 338.059 102.654 338.185 99.5718M336.459 145.811C336.874 134.894 337.234 123.978 337.628 113.061M335.442 169.083C335.765 162.72 336.038 156.352 336.295 149.989M334.421 193.307C334.705 186.64 334.994 179.978 335.279 173.311M333.328 218.748C333.667 211.677 333.995 204.605 334.235 197.529M332.121 247.974C332.35 239.614 332.733 231.264 333.132 222.909M329.772 15.2752C329.756 10.5167 329.728 5.76384 329.701 1.0054M329.81 28.3837C329.805 25.429 329.794 22.4688 329.788 19.5142M329.837 46.1281C329.837 41.5024 329.826 36.8713 329.821 32.2456M329.843 66.8494C329.843 61.3384 329.843 55.833 329.838 50.3221M329.848 80.3055C329.848 77.2292 329.848 74.1528 329.848 71.0819M329.892 119.657C329.876 107.954 329.865 96.2463 329.854 84.5439M329.914 130.711C329.914 128.426 329.908 126.135 329.903 123.85M329.969 157.785C329.947 150.177 329.93 142.569 329.919 134.966M330.029 178.661C330.012 172.99 329.996 167.318 329.979 161.647M329.794 205.535C329.739 197.916 329.777 190.297 330.04 182.678M319.048 46.017C318.365 31.2437 317.819 15.7512 317.108 1M319.714 61.0617C319.551 57.3434 319.381 53.6252 319.212 49.9125M321.086 94.9954C320.67 85.0968 320.277 75.1926 319.906 65.2884M321.73 110.439C321.572 106.704 321.419 102.975 321.266 99.24M323.129 145.812C322.659 135.564 322.238 125.317 321.927 115.064M324.363 169.227C323.992 162.82 323.637 156.412 323.325 149.999M325.964 195.388C325.505 188.073 325.024 180.764 324.609 173.449M327.237 218.052C326.958 211.904 326.603 205.763 326.226 199.621M327.761 248.035C327.909 239.447 327.751 230.86 327.417 222.278M303.527 16.8748C302.932 12.0112 302.418 7.13103 302.331 2.22873M305.254 33.6339C305.041 29.473 304.571 25.3343 304.063 21.2011M309.428 85.2576C307.636 69.3777 306.029 53.4536 305.609 37.4685M313.437 121.649C312.421 111.009 311.159 100.397 309.941 89.7841M314.787 135.421C314.497 132.228 314.191 129.041 313.869 125.854M316.983 157.137C316.415 151.289 315.825 145.446 315.224 139.609M319.01 179.64C318.507 173.532 317.961 167.429 317.382 161.326M321.588 208.463C320.878 200.135 320.135 191.808 319.365 183.486M325.221 248.035C324.151 236.122 323.058 224.215 321.949 212.308M294.639 50.9857C292.142 35.1169 290.504 19.071 287.92 3.21323M296.518 64.6916C296.07 61.4382 295.628 58.1792 295.191 54.9258M302.539 106.842C300.84 94.1496 299.037 81.4678 297.092 68.8082M307.745 147.117C305.991 135.077 304.505 123.004 303.085 110.92M311.126 171.197C310.116 164.568 309.171 157.929 308.357 151.278M314.18 190.276C313.361 185.29 312.547 180.305 311.766 175.32M320.053 228.061C318.387 216.834 316.344 205.668 314.863 194.414M322.435 248.571C322.031 243.077 321.397 237.605 320.638 232.149M276.512 21.1907C276.299 15.7517 274.114 11.3252 273.508 5.54317M279.501 37.1536C278.747 33.12 277.999 29.0864 277.256 25.0472M289.482 85.8935C286.466 71.0206 283.358 56.1699 280.277 41.3136M292.274 99.8259C291.623 96.5503 290.968 93.2747 290.312 89.9992M295.289 115.341C294.568 111.557 293.836 107.772 293.093 103.987M298.862 134.673C297.955 129.616 297.026 124.559 296.076 119.507M303.762 161.094C302.424 153.663 301.053 146.238 299.649 138.818M308.111 184.144C306.942 177.842 305.756 171.54 304.554 165.243M310.427 196.621C309.919 193.849 309.406 191.077 308.887 188.305M314.716 219.319C313.568 213.138 312.399 206.958 311.225 200.777M320.255 248.859C318.693 240.399 317.109 231.939 315.508 223.484M271.967 57.4264C267.559 40.6557 264.827 24.0565 260.058 7.99955M318.196 249.307C313.995 235.967 311.809 222.135 308.532 208.302C295.967 157.951 284.494 110.367 272.918 61.3547M251.65 31.4925C249.531 24.6038 247.892 17.9642 245.767 11.4296M297.076 186.031C282.309 135.819 268.105 85.4677 252.809 35.4487M301.074 199.554C300.135 196.406 299.201 193.252 298.261 190.103M308.471 224.58C306.423 217.564 304.347 210.559 302.265 203.555M315.732 250.11C313.76 242.939 311.728 235.785 309.657 228.641M235.283 24.8029C234.218 21.7763 233.147 18.7497 232.082 15.7231M242.117 44.4402C240.331 39.217 238.517 34.0049 236.687 28.7983M246.477 57.4592C245.488 54.4382 244.483 51.4171 243.461 48.4071M254.218 79.907C252.093 73.7377 249.962 67.5683 247.837 61.4045M267.542 117.887C263.56 106.433 259.55 94.9852 255.48 83.5594M272.694 133.036C271.47 129.434 270.252 125.826 269.045 122.218M285.691 170.788C281.713 159.423 277.764 148.047 273.923 136.638M289.64 182.036C288.788 179.607 287.936 177.178 287.084 174.749M299.834 211.173C296.928 202.791 293.989 194.419 291.05 186.048M313.213 250.951C309.346 238.966 305.314 227.042 301.206 215.141M223.297 33.6454C221.123 29.0308 220.03 24.6044 217.916 20.2609M238.949 72.891C234.223 61.078 229.514 49.2538 224.816 37.4296M247.924 95.3825C245.45 89.2021 242.98 83.0161 240.522 76.8246M267.548 144.151C261.484 129.223 255.452 114.278 249.492 99.306M275.77 163.904C273.633 158.731 271.476 153.568 269.285 148.423M290.946 201.253C286.636 190.143 282.249 179.06 277.507 168.132M301.413 228.271C298.381 220.557 295.415 212.817 292.432 205.087M311.028 251.803C308.286 245.412 305.658 238.972 303.085 232.504M205.52 32.4996C204.52 30.303 203.526 28.1064 202.532 25.9042M211.404 45.3144C210.016 42.3155 208.634 39.3165 207.257 36.3176M216.714 56.7125C215.583 54.2945 214.452 51.8821 213.327 49.4586M221.904 67.7453C220.822 65.4491 219.735 63.1474 218.659 60.8511M232.087 89.236C229.339 83.4484 226.591 77.6553 223.849 71.8622M242.953 112.176C239.948 105.802 236.927 99.4282 233.906 93.0596M248.88 124.625C247.564 121.853 246.247 119.087 244.925 116.315M256.086 139.874C254.349 136.173 252.601 132.476 250.847 128.78M264.756 157.84C262.533 153.17 260.277 148.517 258.02 143.863M275.256 180.919C272.535 174.534 269.656 168.221 266.701 161.946M281.473 194.253C280.091 191.271 278.703 188.294 277.316 185.312M291.869 216.602C289.089 210.51 286.292 204.423 283.391 198.387M308.947 252.733C303.505 242.109 298.545 231.242 293.595 220.375M219.249 89.6784C211.104 74.6838 203.57 59.3627 195.217 44.4843C192.928 40.4064 190.694 36.2898 188.721 32.0349M226.089 102.205C224.526 99.3503 222.964 96.4897 221.401 93.6292M246.045 139.659C240.041 128.344 234.021 117.034 227.973 105.741M252.36 151.571C250.973 148.954 249.585 146.342 248.203 143.725M264.385 173.942C261.085 167.711 257.752 161.498 254.349 155.323M281.681 206.813C276.578 197.213 271.569 187.563 266.499 177.941M296.098 234.346C292.033 226.356 288.105 218.278 283.636 210.51M306.816 253.806C303.604 248.632 300.697 243.271 297.895 237.86M178.26 43.455C177.304 41.8172 176.353 40.1794 175.403 38.5416M189.464 62.3564C186.476 57.3766 183.499 52.3858 180.554 47.3783M201.696 82.607C198.336 77.0518 194.966 71.4966 191.617 65.9303M213.36 102.156C210.197 96.8549 207.034 91.5542 203.87 86.2535M221.658 116.071C219.68 112.757 217.703 109.442 215.725 106.134M226.564 124.288C225.712 122.866 224.865 121.438 224.013 120.016M240.948 148.401C236.873 141.573 232.803 134.746 228.727 127.923M251.59 166.234C248.766 161.498 245.941 156.767 243.117 152.031M265.963 190.33C261.959 183.618 257.955 176.907 253.95 170.195M271.874 200.229C270.629 198.138 269.383 196.052 268.132 193.96M284.625 221.603C281.156 215.788 277.687 209.978 274.218 204.163M304.593 255.067C298.698 245.373 292.689 235.413 286.942 225.476M177.833 69.1621C172.676 61.2498 167.525 53.332 162.198 45.5304M189.929 87.5264C186.678 82.6849 183.477 77.8048 180.287 72.9191M195.938 96.3187C194.78 94.6532 193.627 92.9822 192.485 91.3057M211.666 120C207.203 113.283 202.745 106.566 198.282 99.8485M227.356 143.598C222.969 137.008 218.588 130.419 214.206 123.829M241.866 165.725C237.714 159.584 233.628 153.392 229.689 147.106M251.645 180.045C249.225 176.52 246.81 173.001 244.406 169.471M274.59 214.483C267.93 204.075 261.079 193.806 254.098 183.619M288.067 235.513C284.336 229.775 280.665 223.999 276.983 218.228M302.331 256.511C298.266 250.856 294.355 245.085 290.525 239.264M153.922 57.3155C152.698 55.7496 151.463 54.1893 150.212 52.6456M162.45 68.636C160.543 66.0244 158.615 63.4294 156.659 60.8565M175.004 86.2646C171.638 81.484 168.273 76.7034 164.859 71.9616M196.457 115.535C189.869 107.185 183.663 98.5371 177.528 89.8446M211.076 135.099C207.055 129.76 203.051 124.404 199.057 119.037M231.612 163.5C225.668 155.162 219.67 146.868 213.633 138.596M239.932 175.264C237.971 172.47 236.004 169.681 234.026 166.898M251.202 190.784C248.274 186.75 245.34 182.711 242.412 178.677M259.812 202.653C257.802 199.881 255.791 197.103 253.775 194.331M277.294 226.577C272.295 219.744 267.302 212.905 262.309 206.066M300.249 258C293.781 248.699 286.679 239.292 279.779 229.986M142.045 66.1685C140.674 64.4533 139.319 62.727 137.981 60.9841M162.318 91.15C156.719 83.9404 150.813 76.9743 145.055 69.8975M171.245 102.045C169.158 99.5057 167.071 96.9715 164.973 94.4429M180.598 113.488C178.445 110.843 176.293 108.198 174.13 105.559M194.857 131.121C191.109 126.468 187.356 121.826 183.597 117.184M210.858 151.023C206.482 145.573 202.1 140.123 197.719 134.679M217.599 159.401C216.315 157.802 215.026 156.209 213.742 154.615M236.119 182.484C230.918 175.983 225.712 169.482 220.494 162.991M259.725 212.004C252.721 203.261 245.728 194.508 238.73 185.755M267.373 221.537C265.778 219.551 264.182 217.565 262.593 215.578M276.977 233.461C274.65 230.583 272.328 227.701 270.012 224.818M298.239 259.593C292.082 252.101 285.964 244.576 279.862 237.04M139.625 85.4069C135.08 80.25 130.534 75.0932 125.989 69.9364M179.997 130.955C167.039 117.006 155.02 102.62 142.662 88.8591M192.928 145.325C189.623 141.668 186.318 138.005 183.029 134.331M212.589 167.246C207.055 161.077 201.521 154.908 195.987 148.738M221.669 177.516C219.702 175.209 217.725 172.907 215.687 170.661M237.987 195.299C233.18 190.878 228.864 185.953 224.624 180.985M248.722 207.024C246.138 204.202 243.559 201.38 240.975 198.564M267.28 228.227C262.254 222.257 257.07 216.425 251.885 210.593M283.03 245.772C278.916 241.069 274.775 236.388 270.498 231.828M296.578 261.043C292.978 257.125 289.466 253.13 285.964 249.125M294.743 262.813L113.878 79.6301M111.414 95.3281C109.13 93.2145 106.945 90.448 104.186 88.5889M124.815 108.054C121.329 104.751 117.855 101.436 114.391 98.1053M135.686 118.047C133.091 115.645 130.474 113.266 127.836 110.909M146.421 128.753C144.023 126.075 141.728 123.231 138.876 121.029M173.397 153.054C165.4 146.331 157.751 139.138 149.415 131.907M181.581 160.862C179.915 159.285 178.265 157.68 176.653 156.048M203.401 181.046C197.408 175.064 190.994 169.548 184.761 163.827M241.762 217.15C236.676 213.614 232.655 209.309 228.339 204.894C223.892 200.346 219.32 195.925 214.654 191.603C211.983 189.13 209.273 186.684 206.547 184.272M261.751 235.198C256.086 229.88 251.17 224.347 245.253 219.578M292.978 264.684C290.301 263.699 287.936 260.695 285.893 258.747C283.729 256.689 281.653 254.536 279.659 252.312C275.158 247.282 269.973 242.812 265.035 238.225M105.475 110.543C101.154 106.864 97.4829 101.834 92.4405 99.1341M116.303 119.363C113.878 117.388 111.447 115.418 109.005 113.46M131.256 131.913C127.481 128.626 123.646 125.4 119.783 122.213M152.447 149.806C146.443 144.92 140.521 139.924 134.659 134.861M160.74 156.623C159.128 155.278 157.511 153.945 155.888 152.617M186.908 178.678C179.232 172.227 171.6 165.714 163.914 159.274M204.996 193.91C200.041 189.727 195.08 185.55 190.114 181.378M215.239 202.553C212.994 200.661 210.754 198.768 208.508 196.871M224.865 210.675C222.822 208.954 220.778 207.228 218.741 205.507M248.23 230.334C241.604 224.773 234.982 219.207 228.367 213.63M267.007 246.02C261.779 241.671 256.561 237.311 251.35 232.946M291.394 266.543C283.948 260.866 277.392 254.78 270.23 248.732M90.359 116.403C87.8242 114.245 84.5463 112.032 82.0279 110.057M125.039 142.663C114.615 134.745 104.175 126.844 93.7244 118.965M135.058 150.276C132.834 148.583 130.605 146.89 128.382 145.197M166.11 173.721C156.987 166.81 147.852 159.921 138.702 153.049M176.943 182.092C174.545 180.227 172.147 178.357 169.759 176.487M196.692 197.12C191.213 192.959 185.728 188.798 180.243 184.648M206.378 204.274C204.302 202.747 202.215 201.231 200.123 199.726M237.637 227.889C228.438 220.839 219.2 213.829 209.918 206.891M253.661 240.14C249.438 236.87 245.204 233.622 240.932 230.418M289.919 268.457C278.954 260.025 268.132 251.404 257.222 242.9M96.2375 138.607C88.0484 133.207 79.8483 127.818 71.7302 122.318M105.994 145.059C104.006 143.736 102.012 142.414 100.018 141.097M135.293 165.304C126.994 159.251 118.527 153.447 109.999 147.736M149.579 175.341C146.394 173.217 143.198 171.097 140.007 168.978M172.212 190.624C165.962 186.325 159.674 182.081 153.364 177.865M180.937 196.683C179.281 195.521 177.62 194.364 175.954 193.214M212.518 218.41C203.679 212.418 194.906 206.326 186.116 200.251M221.259 224.508C219.746 223.457 218.238 222.4 216.725 221.349M241.096 238.043C235.878 234.485 230.656 230.938 225.449 227.375M260.123 251.155C255.469 247.896 250.787 244.671 246.1 241.461M288.466 270.544C280.67 265.293 273.022 259.76 265.455 254.808M68.3048 136.709C65.9721 135.818 64.8795 133.605 62.5249 133.113M81.5691 144.904C79.0944 143.382 76.6196 141.861 74.1449 140.339M115.309 166.101C105.557 159.981 95.8167 153.84 86.087 147.687M124.651 172.011C123.099 171.026 121.553 170.036 120.007 169.045M135.44 178.816C133.495 177.593 131.551 176.376 129.606 175.153M184.078 209.392C173.032 202.553 162.073 195.56 151.07 188.643C147.891 186.646 144.711 184.643 141.532 182.651M192.699 214.66C191.644 214.024 190.595 213.393 189.541 212.757M226.788 235.779C217.299 229.327 207.465 223.794 198.364 218.1M248.651 249.517C243.199 246.115 237.763 242.679 232.349 239.209M265.663 259.992C262.112 257.834 258.566 255.665 255.032 253.48M287.078 272.762C281.97 269.774 276.879 266.753 271.809 263.704M59.4275 149.818C57.4881 148.473 55.2209 147.566 53.44 145.994M92.5062 168.226C83.1753 163.124 73.9756 157.785 64.6283 152.711M146.864 198.298C134.118 191.377 121.422 184.35 108.748 177.289C105.175 175.297 101.608 173.306 98.0348 171.314M157.489 204.229C156.047 203.427 154.61 202.625 153.173 201.822M201.505 227.723C188.405 221.216 175.534 214.239 162.739 207.146M218.282 236.537C215.02 234.651 211.699 232.88 208.35 231.165M240.036 249.047C234.627 245.971 229.235 242.867 223.849 239.752M253.48 256.627C250.82 255.095 248.154 253.584 245.477 252.085M286.029 274.632C276.846 269.724 268.105 264.745 258.736 259.538M72.0632 172.564C62.6941 167.91 53.9532 163.484 44.7207 159.118M92.3041 182.551C87.207 180.039 82.1155 177.527 77.0239 175.004M104.17 188.284C102.252 187.371 100.329 186.458 98.4061 185.556M124.372 198.11C119.455 195.675 114.528 193.263 109.589 190.878M172.573 222.505C158.216 215.821 144.323 208.058 130.146 200.987M185.58 228.343C182.925 227.164 180.27 225.975 177.609 224.807M210.568 240.255C203.592 236.77 196.588 233.35 189.519 230.064M221.15 245.666C219.5 244.809 217.85 243.951 216.2 243.088M261.238 265.928C249.301 260.224 237.408 254.414 225.788 248.068M284.762 277.178C278.829 274.301 272.88 271.473 266.925 268.64M44.9011 176.686C42.0275 175.502 39.143 174.345 36.2476 173.228M56.9142 181.793C55.0896 180.996 53.2649 180.211 51.4348 179.431M75.6854 190.065C71.3586 188.167 67.0428 186.241 62.7215 184.338M130.24 213.669C114.047 206.089 97.6579 199.449 81.0284 192.4M141.663 218.449C139.822 217.664 137.98 216.883 136.134 216.109M150.868 222.494C149.398 221.83 147.929 221.177 146.454 220.53M196.878 241.921C183.646 236.294 170.502 230.451 157.129 225.172M228.804 255.444C220.21 251.881 211.65 248.24 203.095 244.582M241.544 261.221C239.249 260.169 236.955 259.124 234.655 258.083M283.817 279.335C271.929 274.698 260.457 269.165 249.05 264.434M220.325 259.223C191.622 249.8 163.761 238.734 134.807 228.221C108.038 218.815 81.8149 209.409 55.046 199.449C45.7588 195.576 37.0179 192.256 27.6433 189.257M252.208 270.82C244.068 267.833 235.922 264.867 227.771 261.912M266.597 276.044C264.079 275.131 261.56 274.212 259.042 273.299M40.2082 209.436C33.882 207.472 27.5558 205.502 21.2296 203.526M58.3621 214.997C54.1009 213.697 49.8397 212.397 45.5785 211.102M77.9634 221.133C73.3745 219.689 68.7855 218.239 64.202 216.784M123.176 235.115C109.906 231.059 96.6471 226.981 83.3992 222.842M134.113 238.451C132.168 237.859 130.223 237.267 128.278 236.675M175.577 251.067C163.701 247.448 151.824 243.84 139.947 240.227M187.88 254.857C185.831 254.226 183.783 253.59 181.734 252.943M235.638 269.63C221.751 264.949 207.678 260.877 193.66 256.628M256.633 275.805C251.716 274.698 246.799 273.038 241.817 271.533M28.3425 222.268C23.7317 221.155 19.099 220.126 14.4445 219.224M41.4046 225.62C39.2358 225.034 37.0615 224.458 34.8872 223.899M91.3916 238.994C76.6742 235.713 62.2135 231.391 47.6872 227.347M109.534 243.497C105.415 242.512 101.307 241.5 97.1988 240.465M139.461 250.934C131.791 249.025 124.121 247.094 116.451 245.196M195.927 265.42C179.604 261.419 163.761 256.993 147.213 252.932M211.016 269.237C208.192 268.524 205.373 267.815 202.554 267.102M221.691 271.922C219.97 271.49 218.254 271.058 216.534 270.627M253.382 279.751C245.389 277.803 237.408 275.833 229.426 273.853M69.545 247.044C49.583 243.16 29.3697 238.733 8.99798 234.927M99.7337 253.048C92.2657 251.554 84.7977 250.071 77.3243 248.599M112.654 255.648C111.086 255.327 109.518 255.012 107.95 254.697M156.336 264.9C143.913 262.366 131.518 259.705 119.138 256.977M169.803 267.616C167.721 267.196 165.635 266.775 163.548 266.36M38.3836 253.894C27.1953 252.168 15.9742 250.68 4.75851 249.158M55.5103 256.766C52.5384 256.218 49.561 255.704 46.5837 255.206M77.9088 260.307C73.1724 259.56 68.4359 258.808 63.6994 258.061M116.074 266.017C106.213 264.645 96.3684 263.168 86.524 261.646M204.963 279.767C177.965 275.805 151.742 271.932 124.727 267.373M12.3194 266.736C8.61003 266.399 4.78589 265.845 1 265.585M92.2221 274.865C68.1574 271.932 44.6662 270.272 20.7435 267.594M129.934 278.694C120.264 277.726 110.6 276.746 100.936 275.75" stroke="url(#paint0_radial_0_3)" stroke-width="1.25" stroke-miterlimit="10"/>
<defs>
<radialGradient id="paint0_radial_0_3" cx="0" cy="0" r="1" gradientUnits="userSpaceOnUse" gradientTransform="translate(330.489 264.26) rotate(-90.2923) scale(176.176 178.021)">
<stop stop-color="#AD911F"/>
<stop offset="1" stop-color="#AD911F" stop-opacity="0"/>
</radialGradient>
</defs>
</svg>
